# xmcd CD database file
#
# Track frame offsets:
#	182
#	22597
#	39082
#	60625
#	86640
#	137450
#	141177
#	156382
#	193007
#
# Disc length: 2906 seconds
#
# Revision: 12
# Processed by: cddbd v1.5.2PL0 Copyright (c) Steve Scherf et al.
# Submitted via: CDex 1.70beta2
#
DISCID=6b0b5809
DTITLE=George Harrison - ALL THINGS MUST PASS [Disc2]
DYEAR=1970
DGENRE=Rock
TTITLE0=I Dig Love
TTITLE1=Art Of Dying
TTITLE2=Isn't It A Pity  (Version Two)
TTITLE3=Hear Me Lord
TTITLE4=Out Of The Blue
TTITLE5=It's Johnny's Birthday
TTITLE6=Plug Me In
TTITLE7=I Remember Jeep
TTITLE8=Thanks For The Pepperoni
EXTD=\n\ns 6 April 19957 46689 2\n1970 EMI Records Ltd.\n\n\n\n\n\n\n\n\n\n YEAR: 1970
EXTT0=
EXTT1=
EXTT2=
EXTT3=
EXTT4=
EXTT5=
EXTT6=
EXTT7=
EXTT8=
PLAYORDER=
